# xmcd CD database file
#
# Track frame offsets:
#	150
#	17005
#	36287
#	54892
#	69635
#	84085
#	103040
#	119410
#	140945
#	151970
#
# Disc length: 2229 seconds
#
# Revision: 0
# Processed by: cddbd v1.5.2PL0 Copyright (c) Steve Scherf et al.
# Submitted via: CDex 1.70beta2
#
DISCID=8008b30a
DTITLE=Danny Berrios - El es Jehova
DYEAR=1900
DGENRE=Salsa
TTITLE0=El es Jehova
TTITLE1=El buen pastor
TTITLE2=Isaías 28:16
TTITLE3=Lo hicistes por amor
TTITLE4=Alto y lejos
TTITLE5=El Shaddai
TTITLE6=Yo vivo en las manos
TTITLE7=Yo te amare Señor
TTITLE8=Que majestoso es tu nombre
TTITLE9=Señor de mi
EXTD=
EXTT0=
EXTT1=
EXTT2=
EXTT3=
EXTT4=
EXTT5=
EXTT6=
EXTT7=
EXTT8=
EXTT9=
PLAYORDER=
